<svg width="5245" height="2282" viewBox="0 0 5245 2282" fill="none" xmlns="http://www.w3.org/2000/svg">
<path d="M184.995 951.241L4.9512 1481.37C-23.0557 1641.41 79.9696 1714.76 134.983 1731.43C315.027 1779.44 400.048 1668.08 420.053 1606.4C465.064 1473.04 563.088 1183.3 595.096 1091.28C635.105 976.247 645.108 856.218 825.152 846.215C969.187 838.213 1031.87 716.184 1045.21 656.169C1061.21 444.117 891.835 384.436 805.147 381.102C600.097 436.115 620.102 506.132 595.096 656.169C570.089 806.206 475.066 831.212 360.038 831.212C268.016 831.212 205 911.231 184.995 951.241Z" fill="#2DAEFF"/>
<path d="M2211.55 1623.14L2391.6 1093.01C2419.6 932.973 2316.58 859.621 2261.56 842.951C2081.52 794.939 1996.5 906.299 1976.49 967.981C1931.48 1101.35 1833.46 1391.08 1801.45 1483.11C1761.44 1598.14 1751.44 1718.16 1571.39 1728.17C1427.36 1736.17 1364.68 1858.2 1351.34 1918.21C1335.34 2130.27 1504.71 2189.95 1591.4 2193.28C1796.45 2138.27 1776.45 2068.25 1801.45 1918.21C1826.46 1768.18 1921.48 1743.17 2036.51 1743.17C2128.53 1743.17 2191.55 1663.15 2211.55 1623.14Z" fill="#2DAEFF"/>
<path d="M1311.35 1623.14L1491.39 1093.01C1516.04 1002.43 1597.36 826.255 1725.39 846.26C1873.43 834.257 1933.77 714.561 1945.44 656.213C1957.45 406.798 1767.07 375.58 1670.38 391.148C1510.34 415.154 1484.37 577.86 1491.39 656.213C1500.24 776.242 1387.68 826.255 1330.29 836.257C1190.26 821.253 1096.29 906.299 1076.29 967.981C1031.28 1101.35 933.254 1391.08 901.246 1483.11C861.236 1598.14 851.233 1718.16 671.189 1728.17C527.154 1736.17 464.472 1858.2 451.136 1918.21C435.132 2130.27 604.506 2189.95 691.194 2193.28C896.244 2138.27 876.24 2068.25 901.246 1918.21C926.252 1768.18 1021.28 1743.17 1136.3 1743.17C1228.33 1743.17 1291.34 1663.15 1311.35 1623.14Z" fill="#2DAEFF"/>
<path d="M3461.54 776.088C3461.54 912.922 3433.53 1012.15 3377.52 1073.76C3322.3 1134.58 3232.28 1164.98 3107.45 1164.98C2977.02 1164.98 2885.4 1136.18 2832.58 1078.56C2779.77 1020.95 2753.36 920.123 2753.36 776.088C2753.36 639.255 2780.97 540.43 2836.18 479.616C2892.2 418.801 2982.62 388.393 3107.45 388.393C3237.88 388.393 3329.51 417.2 3382.32 474.814C3435.13 532.429 3461.54 632.853 3461.54 776.088ZM2964.62 936.928C2975.02 956.932 2990.22 970.936 3010.23 978.938C3031.03 986.94 3063.44 990.941 3107.45 990.941C3151.46 990.941 3183.47 986.94 3203.47 978.938C3224.28 970.936 3239.88 956.932 3250.29 936.928C3258.29 920.924 3263.89 900.119 3267.09 874.512C3271.09 848.906 3273.09 816.098 3273.09 776.088C3273.09 735.278 3271.09 702.07 3267.09 676.464C3263.89 650.057 3258.29 628.852 3250.29 612.848C3240.68 592.043 3225.48 577.64 3204.67 569.638C3184.67 560.835 3152.26 556.434 3107.45 556.434C3062.64 556.434 3029.83 560.835 3009.03 569.638C2989.02 577.64 2974.22 592.043 2964.62 612.848C2956.61 628.852 2950.61 650.057 2946.61 676.464C2943.41 702.07 2941.81 735.278 2941.81 776.088C2941.81 816.098 2943.41 848.906 2946.61 874.512C2950.61 900.119 2956.61 920.924 2964.62 936.928ZM4101.96 765.286L4384.03 1152.98H4148.77L3943.52 845.705H3893.11V1152.98H3707.06V400.396H3893.11V696.869H3943.52L4151.17 400.396H4374.43L4101.96 765.286ZM5213.03 776.088C5213.03 912.922 5185.02 1012.15 5129.01 1073.76C5073.79 1134.58 4983.77 1164.98 4858.94 1164.98C4728.51 1164.98 4636.89 1136.18 4584.07 1078.56C4531.26 1020.95 4504.86 920.123 4504.86 776.088C4504.86 639.255 4532.46 540.43 4587.68 479.616C4643.69 418.801 4734.11 388.393 4858.94 388.393C4989.37 388.393 5081 417.2 5133.81 474.814C5186.62 532.429 5213.03 632.853 5213.03 776.088ZM4716.11 936.928C4726.51 956.932 4741.71 970.936 4761.72 978.938C4782.52 986.94 4814.93 990.941 4858.94 990.941C4902.95 990.941 4934.96 986.94 4954.97 978.938C4975.77 970.936 4991.37 956.932 5001.78 936.928C5009.78 920.924 5015.38 900.119 5018.58 874.512C5022.58 848.906 5024.58 816.098 5024.58 776.088C5024.58 735.278 5022.58 702.07 5018.58 676.464C5015.38 650.057 5009.78 628.852 5001.78 612.848C4992.17 592.043 4976.97 577.64 4956.17 569.638C4936.16 560.835 4903.75 556.434 4858.94 556.434C4814.13 556.434 4781.32 560.835 4760.52 569.638C4740.51 577.64 4725.71 592.043 4716.11 612.848C4708.11 628.852 4702.1 650.057 4698.1 676.464C4694.9 702.07 4693.3 735.278 4693.3 776.088C4693.3 816.098 4694.9 848.906 4698.1 874.512C4702.1 900.119 4708.11 920.924 4716.11 936.928Z" fill="#2DAEFF"/>
<path d="M2967.29 1735.28V1850.11H2916.18V1777.29H2732.39V1527.33H2785.25V1733.18H2877.32V1527.33H2930.18V1735.28H2967.29ZM3005.89 1527.33H3053.5V1648.11C3053.5 1653.94 3053.39 1660.48 3053.15 1667.71C3052.92 1674.95 3052.69 1682.07 3052.45 1689.07C3052.22 1695.84 3051.99 1701.79 3051.75 1706.92C3051.52 1711.82 3051.29 1715.21 3051.05 1717.07H3052.1L3167.63 1527.33H3231V1777.29H3183.73V1657.21C3183.73 1650.91 3183.85 1644.02 3184.08 1636.55C3184.32 1628.85 3184.55 1621.5 3184.78 1614.5C3185.25 1607.5 3185.6 1601.43 3185.83 1596.29C3186.3 1590.93 3186.65 1587.43 3186.89 1585.79H3185.48L3069.61 1777.29H3005.89V1527.33ZM3436.93 1523.83V1554.63C3464.24 1555.33 3485.94 1560.12 3502.05 1568.99C3518.38 1577.62 3530.05 1588.83 3537.06 1602.6C3544.29 1616.37 3547.91 1631.42 3547.91 1647.76C3547.91 1658.26 3546.04 1669 3542.31 1679.97C3538.81 1690.93 3532.74 1701.09 3524.1 1710.42C3515.7 1719.52 3504.38 1726.99 3490.14 1732.83C3475.91 1738.66 3458.17 1741.81 3436.93 1742.28V1780.79H3389.32V1742.28C3367.85 1741.81 3349.88 1738.66 3335.41 1732.83C3321.17 1726.99 3309.85 1719.41 3301.45 1710.07C3293.05 1700.74 3287.09 1690.7 3283.59 1679.97C3280.09 1669 3278.34 1658.26 3278.34 1647.76C3278.34 1635.62 3280.33 1624.07 3284.29 1613.1C3288.26 1602.13 3294.56 1592.33 3303.2 1583.69C3311.83 1575.06 3323.27 1568.17 3337.51 1563.04C3351.74 1557.9 3369.01 1555.1 3389.32 1554.63V1523.83H3436.93ZM3389.32 1595.94C3374.15 1596.64 3362.01 1599.33 3352.91 1604C3344.04 1608.43 3337.62 1614.38 3333.66 1621.85C3329.92 1629.32 3328.05 1637.84 3328.05 1647.41C3328.05 1657.91 3330.16 1667.13 3334.36 1675.06C3338.79 1682.77 3345.44 1688.95 3354.31 1693.62C3363.41 1698.05 3375.08 1700.62 3389.32 1701.32V1595.94ZM3436.93 1701.32C3451.17 1700.62 3462.72 1698.05 3471.59 1693.62C3480.69 1688.95 3487.34 1682.77 3491.54 1675.06C3495.98 1667.13 3498.2 1657.91 3498.2 1647.41C3498.2 1637.84 3496.21 1629.32 3492.24 1621.85C3488.51 1614.38 3482.09 1608.43 3472.99 1604C3464.12 1599.33 3452.1 1596.64 3436.93 1595.94V1701.32ZM3675.11 1527.33C3707.32 1527.33 3730.78 1534.33 3745.48 1548.33C3760.42 1562.1 3767.89 1581.12 3767.89 1605.4C3767.89 1616.37 3766.25 1626.87 3762.98 1636.9C3759.72 1646.71 3754.23 1655.58 3746.53 1663.51C3739.06 1671.21 3729.14 1677.28 3716.77 1681.72C3704.4 1686.15 3689.12 1688.37 3670.91 1688.37H3648.16V1777.29H3595.29V1527.33H3675.11ZM3672.31 1570.74H3648.16V1644.96H3665.66C3675.7 1644.96 3684.33 1643.67 3691.57 1641.11C3698.8 1638.54 3704.4 1634.45 3708.37 1628.85C3712.34 1623.25 3714.32 1616.02 3714.32 1607.15C3714.32 1594.78 3710.94 1585.68 3704.17 1579.84C3697.4 1573.77 3686.78 1570.74 3672.31 1570.74ZM4041.98 1651.96C4041.98 1671.33 4039.53 1688.95 4034.63 1704.82C4029.96 1720.46 4022.72 1734 4012.92 1745.43C4003.35 1756.87 3990.98 1765.62 3975.81 1771.69C3960.87 1777.76 3943.25 1780.79 3922.95 1780.79C3902.64 1780.79 3884.91 1777.76 3869.74 1771.69C3854.8 1765.39 3842.43 1756.63 3832.63 1745.43C3823.06 1734 3815.82 1720.34 3810.92 1704.47C3806.25 1688.6 3803.92 1670.98 3803.92 1651.61C3803.92 1625.7 3808.12 1603.18 3816.52 1584.04C3825.16 1564.9 3838.23 1550.08 3855.73 1539.58C3873.47 1528.84 3895.99 1523.48 3923.3 1523.48C3950.37 1523.48 3972.66 1528.84 3990.16 1539.58C4007.67 1550.08 4020.62 1565.02 4029.02 1584.39C4037.66 1603.53 4041.98 1626.05 4041.98 1651.96ZM3859.58 1651.96C3859.58 1669.46 3861.8 1684.52 3866.23 1697.12C3870.67 1709.72 3877.55 1719.41 3886.89 1726.18C3896.23 1732.94 3908.24 1736.33 3922.95 1736.33C3938.12 1736.33 3950.26 1732.94 3959.36 1726.18C3968.69 1719.41 3975.46 1709.72 3979.66 1697.12C3984.1 1684.52 3986.31 1669.46 3986.31 1651.96C3986.31 1625.59 3981.41 1604.93 3971.61 1589.99C3961.81 1575.06 3945.7 1567.59 3923.3 1567.59C3908.36 1567.59 3896.23 1570.97 3886.89 1577.74C3877.55 1584.51 3870.67 1594.19 3866.23 1606.8C3861.8 1619.4 3859.58 1634.45 3859.58 1651.96ZM4171.47 1527.33C4193.65 1527.33 4212.2 1529.43 4227.14 1533.63C4242.31 1537.6 4253.63 1544.25 4261.1 1553.58C4268.8 1562.69 4272.65 1575.06 4272.65 1590.69C4272.65 1600.03 4271.13 1608.55 4268.1 1616.25C4265.06 1623.95 4260.63 1630.25 4254.79 1635.15C4249.19 1640.06 4242.31 1643.21 4234.14 1644.61V1646.36C4242.54 1647.99 4250.13 1650.91 4256.89 1655.11C4263.66 1659.31 4269.03 1665.38 4273 1673.31C4276.97 1681.25 4278.95 1691.75 4278.95 1704.82C4278.95 1719.99 4275.22 1733.06 4267.75 1744.03C4260.51 1754.77 4250.01 1763.05 4236.24 1768.89C4222.47 1774.49 4206.13 1777.29 4187.23 1777.29H4093.75V1527.33H4171.47ZM4177.42 1626.4C4192.83 1626.4 4203.45 1623.95 4209.28 1619.05C4215.35 1614.15 4218.38 1607.03 4218.38 1597.7C4218.38 1588.13 4214.88 1581.24 4207.88 1577.04C4200.88 1572.84 4189.79 1570.74 4174.62 1570.74H4146.62V1626.4H4177.42ZM4146.62 1668.41V1733.53H4181.28C4197.15 1733.53 4208.23 1730.49 4214.53 1724.43C4220.84 1718.12 4223.99 1709.84 4223.99 1699.57C4223.99 1693.27 4222.59 1687.78 4219.79 1683.12C4217.22 1678.45 4212.67 1674.83 4206.13 1672.26C4199.6 1669.7 4190.73 1668.41 4179.53 1668.41H4146.62ZM4481.96 1777.29L4463.75 1717.77H4372.73L4354.52 1777.29H4297.46L4385.68 1526.28H4450.45L4539.02 1777.29H4481.96ZM4432.94 1615.2C4431.78 1611.23 4430.26 1606.21 4428.39 1600.15C4426.53 1594.08 4424.66 1587.89 4422.79 1581.59C4420.92 1575.29 4419.41 1569.81 4418.24 1565.14C4417.07 1569.81 4415.44 1575.64 4413.34 1582.64C4411.47 1589.41 4409.6 1595.94 4407.74 1602.25C4406.1 1608.31 4404.82 1612.63 4403.89 1615.2L4386.03 1673.31H4451.15L4432.94 1615.2ZM4654.7 1681.37L4596.23 1777.29H4537.42L4608.49 1667.36C4601.72 1664.56 4594.95 1660.48 4588.18 1655.11C4581.41 1649.51 4575.81 1642.16 4571.38 1633.05C4566.94 1623.72 4564.73 1612.28 4564.73 1598.75C4564.73 1575.64 4573.01 1558.02 4589.58 1545.88C4606.15 1533.51 4629.38 1527.33 4659.25 1527.33H4740.47V1777.29H4687.61V1681.37H4654.7ZM4661.35 1570.74C4652.25 1570.74 4644.43 1571.79 4637.89 1573.89C4631.59 1575.99 4626.69 1579.37 4623.19 1584.04C4619.92 1588.71 4618.29 1594.89 4618.29 1602.6C4618.29 1613.57 4621.91 1622.32 4629.14 1628.85C4636.61 1635.15 4647.81 1638.31 4662.75 1638.31H4687.61V1570.74H4661.35ZM2732.39 2197.29V1947.33H2930.18V2197.29H2877.32V1991.44H2785.25V2197.29H2732.39ZM3191.04 2197.29H3138.18V1991.44H3076.91C3075.51 2002.17 3073.99 2013.84 3072.36 2026.45C3070.96 2039.05 3069.33 2051.89 3067.46 2064.96C3065.83 2077.79 3064.08 2090.05 3062.21 2101.72C3060.34 2113.15 3058.47 2123.3 3056.61 2132.17C3053.57 2146.64 3049.49 2159.01 3044.35 2169.28C3039.45 2179.55 3032.57 2187.37 3023.7 2192.74C3015.06 2198.11 3003.74 2200.79 2989.74 2200.79C2985.07 2200.79 2980.64 2200.44 2976.44 2199.74C2972.24 2199.04 2968.27 2198.11 2964.53 2196.94V2153.53C2967.57 2154.46 2970.49 2155.28 2973.29 2155.98C2976.32 2156.68 2979.59 2157.03 2983.09 2157.03C2987.76 2157.03 2991.61 2155.51 2994.64 2152.48C2997.68 2149.44 3000.36 2144.31 3002.69 2137.07C3005.03 2129.61 3007.36 2119.34 3009.7 2106.27C3010.86 2100.67 3012.26 2092.73 3013.9 2082.46C3015.53 2071.96 3017.4 2059.71 3019.5 2045.7C3021.83 2031.47 3024.17 2016.06 3026.5 1999.49C3028.83 1982.69 3031.05 1965.3 3033.15 1947.33H3191.04V2197.29ZM3407.08 2197.29L3388.88 2137.77H3297.86L3279.65 2197.29H3222.59L3310.81 1946.28H3375.58L3464.15 2197.29H3407.08ZM3358.07 2035.2C3356.9 2031.23 3355.39 2026.21 3353.52 2020.15C3351.65 2014.08 3349.79 2007.89 3347.92 2001.59C3346.05 1995.29 3344.53 1989.81 3343.37 1985.14C3342.2 1989.81 3340.57 1995.64 3338.47 2002.64C3336.6 2009.41 3334.73 2015.94 3332.87 2022.25C3331.23 2028.31 3329.95 2032.63 3329.01 2035.2L3311.16 2093.31H3376.28L3358.07 2035.2ZM3567.46 2197.29H3514.6V1991.44H3446.68V1947.33H3635.38V1991.44H3567.46V2197.29ZM3816.76 1943.83V1974.63C3844.07 1975.33 3865.77 1980.12 3881.88 1988.99C3898.21 1997.62 3909.88 2008.83 3916.88 2022.6C3924.12 2036.37 3927.74 2051.42 3927.74 2067.76C3927.74 2078.26 3925.87 2089 3922.14 2099.97C3918.64 2110.93 3912.57 2121.09 3903.93 2130.42C3895.53 2139.52 3884.21 2146.99 3869.97 2152.83C3855.74 2158.66 3838 2161.81 3816.76 2162.28V2200.79H3769.15V2162.28C3747.68 2161.81 3729.71 2158.66 3715.24 2152.83C3701 2146.99 3689.68 2139.41 3681.28 2130.07C3672.88 2120.74 3666.92 2110.7 3663.42 2099.97C3659.92 2089 3658.17 2078.26 3658.17 2067.76C3658.17 2055.62 3660.16 2044.07 3664.12 2033.1C3668.09 2022.13 3674.39 2012.33 3683.03 2003.69C3691.66 1995.06 3703.1 1988.17 3717.34 1983.04C3731.57 1977.9 3748.84 1975.1 3769.15 1974.63V1943.83H3816.76ZM3769.15 2015.94C3753.98 2016.64 3741.84 2019.33 3732.74 2024C3723.87 2028.43 3717.45 2034.38 3713.48 2041.85C3709.75 2049.32 3707.88 2057.84 3707.88 2067.41C3707.88 2077.91 3709.98 2087.13 3714.19 2095.06C3718.62 2102.77 3725.27 2108.95 3734.14 2113.62C3743.24 2118.05 3754.91 2120.62 3769.15 2121.32V2015.94ZM3816.76 2121.32C3831 2120.62 3842.55 2118.05 3851.42 2113.62C3860.52 2108.95 3867.17 2102.77 3871.37 2095.06C3875.81 2087.13 3878.03 2077.91 3878.03 2067.41C3878.03 2057.84 3876.04 2049.32 3872.07 2041.85C3868.34 2034.38 3861.92 2028.43 3852.82 2024C3843.95 2019.33 3831.93 2016.64 3816.76 2015.94V2121.32ZM4201.98 2071.96C4201.98 2091.33 4199.53 2108.95 4194.63 2124.82C4189.96 2140.46 4182.72 2154 4172.92 2165.43C4163.35 2176.87 4150.98 2185.62 4135.81 2191.69C4120.87 2197.76 4103.25 2200.79 4082.95 2200.79C4062.64 2200.79 4044.91 2197.76 4029.74 2191.69C4014.8 2185.39 4002.43 2176.63 3992.63 2165.43C3983.06 2154 3975.82 2140.34 3970.92 2124.47C3966.25 2108.6 3963.92 2090.98 3963.92 2071.61C3963.92 2045.7 3968.12 2023.18 3976.52 2004.04C3985.16 1984.9 3998.23 1970.08 4015.73 1959.58C4033.47 1948.84 4055.99 1943.48 4083.3 1943.48C4110.37 1943.48 4132.66 1948.84 4150.16 1959.58C4167.67 1970.08 4180.62 1985.02 4189.02 2004.39C4197.66 2023.53 4201.98 2046.05 4201.98 2071.96ZM4019.58 2071.96C4019.58 2089.46 4021.8 2104.52 4026.23 2117.12C4030.67 2129.72 4037.55 2139.41 4046.89 2146.18C4056.23 2152.94 4068.24 2156.33 4082.95 2156.33C4098.12 2156.33 4110.26 2152.94 4119.36 2146.18C4128.69 2139.41 4135.46 2129.72 4139.66 2117.12C4144.1 2104.52 4146.31 2089.46 4146.31 2071.96C4146.31 2045.59 4141.41 2024.93 4131.61 2009.99C4121.81 1995.06 4105.7 1987.59 4083.3 1987.59C4068.36 1987.59 4056.23 1990.97 4046.89 1997.74C4037.55 2004.51 4030.67 2014.19 4026.23 2026.8C4021.8 2039.4 4019.58 2054.45 4019.58 2071.96ZM4333.57 1947.33C4365.78 1947.33 4389.24 1954.33 4403.94 1968.33C4418.88 1982.1 4426.35 2001.12 4426.35 2025.4C4426.35 2036.37 4424.71 2046.87 4421.45 2056.9C4418.18 2066.71 4412.69 2075.58 4404.99 2083.51C4397.52 2091.21 4387.6 2097.28 4375.23 2101.72C4362.86 2106.15 4347.58 2108.37 4329.37 2108.37H4306.62V2197.29H4253.75V1947.33H4333.57ZM4330.77 1990.74H4306.62V2064.96H4324.12C4334.16 2064.96 4342.79 2063.67 4350.03 2061.11C4357.26 2058.54 4362.86 2054.45 4366.83 2048.85C4370.8 2043.25 4372.78 2036.02 4372.78 2027.15C4372.78 2014.78 4369.4 2005.68 4362.63 1999.84C4355.86 1993.77 4345.24 1990.74 4330.77 1990.74ZM4579.31 2197.29L4519.09 2001.24H4517.69C4517.93 2005.91 4518.28 2012.91 4518.74 2022.25C4519.21 2031.58 4519.68 2041.62 4520.15 2052.35C4520.61 2062.86 4520.85 2072.43 4520.85 2081.06V2197.29H4473.58V1947.33H4545.7L4604.87 2138.47H4605.92L4668.58 1947.33H4740.7V2197.29H4691.34V2078.96C4691.34 2071.02 4691.45 2061.92 4691.69 2051.65C4692.15 2041.38 4692.5 2031.7 4692.74 2022.6C4693.2 2013.26 4693.55 2006.26 4693.79 2001.59H4692.39L4627.97 2197.29H4579.31ZM4956.83 2197.29L4938.62 2137.77H4847.6L4829.4 2197.29H4772.33L4860.55 1946.28H4925.32L5013.89 2197.29H4956.83ZM4907.82 2035.2C4906.65 2031.23 4905.13 2026.21 4903.26 2020.15C4901.4 2014.08 4899.53 2007.89 4897.66 2001.59C4895.8 1995.29 4894.28 1989.81 4893.11 1985.14C4891.95 1989.81 4890.31 1995.64 4888.21 2002.64C4886.34 2009.41 4884.48 2015.94 4882.61 2022.25C4880.98 2028.31 4879.69 2032.63 4878.76 2035.2L4860.9 2093.31H4926.02L4907.82 2035.2Z" fill="#2DAEFF"/>
</svg>
