<svg width="48" height="48" viewBox="0 0 48 48" fill="none" xmlns="http://www.w3.org/2000/svg">
<path d="M10 10H36C37.5913 10 39.1174 10.6321 40.2426 11.7574C41.3679 12.8826 42 14.4087 42 16V34C42 35.5913 41.3679 37.1174 40.2426 38.2426C39.1174 39.3679 37.5913 40 36 40H10C8.4087 40 6.88258 39.3679 5.75736 38.2426C4.63214 37.1174 4 35.5913 4 34V16C4 14.4087 4.63214 12.8826 5.75736 11.7574C6.88258 10.6321 8.4087 10 10 10ZM10 12C9 12 8.12 12.34 7.44 12.94L23 23L38.56 12.94C37.88 12.34 37 12 36 12H10ZM23 25.42L6.26 14.56C6.1 15 6 15.5 6 16V34C6 35.0609 6.42143 36.0783 7.17157 36.8284C7.92172 37.5786 8.93913 38 10 38H36C37.0609 38 38.0783 37.5786 38.8284 36.8284C39.5786 36.0783 40 35.0609 40 34V16C40 15.5 39.9 15 39.74 14.56L23 25.42Z" fill="white"/>
</svg>
