<svg width="44" height="42" viewBox="0 0 44 42" fill="none" xmlns="http://www.w3.org/2000/svg">
<path d="M42.5288 1.85667C41.9592 1.38337 41.272 1.0732 40.5403 0.959104C39.8085 0.845009 39.0595 0.93125 38.3728 1.20867L2.53083 15.6787C1.76454 15.9941 1.11225 16.535 0.660519 17.2297C0.208784 17.9244 -0.0210482 18.74 0.00151562 19.5684C0.0240795 20.3967 0.297972 21.1987 0.786856 21.8677C1.27574 22.5368 1.9565 23.0415 2.73883 23.3147L9.98883 25.8367L14.0288 39.2007C14.0843 39.379 14.1644 39.5486 14.2668 39.7047C14.2828 39.7287 14.3048 39.7447 14.3208 39.7707C14.439 39.9345 14.5813 40.0795 14.7428 40.2007L14.8828 40.3007C15.0725 40.4259 15.2822 40.5179 15.5028 40.5727L15.5288 40.5747L15.5408 40.5807C15.6744 40.6078 15.8105 40.6212 15.9468 40.6207L15.9828 40.6147C16.1876 40.611 16.3907 40.576 16.5848 40.5107C16.6288 40.492 16.6715 40.472 16.7128 40.4507C16.858 40.391 16.9956 40.3145 17.1228 40.2227L17.4268 39.9647L22.8308 33.9987L30.8908 40.2427C31.6 40.7957 32.4735 41.0962 33.3728 41.0967C34.3153 41.0956 35.2287 40.7704 35.96 40.1758C36.6912 39.5811 37.1957 38.7531 37.3888 37.8307L43.9148 5.79667C44.0624 5.07598 44.0114 4.32873 43.7673 3.63477C43.5232 2.94081 43.0951 2.32622 42.5288 1.85667ZM16.7388 26.4727C16.4624 26.7495 16.2733 27.1014 16.1948 27.4847L15.5748 30.4927L14.0068 25.3067L22.1368 21.0727L16.7388 26.4727ZM33.3428 37.0807L23.8168 29.7007C23.4184 29.3926 22.9185 29.2462 22.4168 29.2907C21.9152 29.3352 21.4488 29.5673 21.1108 29.9407L19.3788 31.8507L19.9908 28.8767L34.1568 14.7107C34.4929 14.3725 34.6972 13.9254 34.7327 13.4499C34.7683 12.9744 34.6328 12.5019 34.3507 12.1175C34.0686 11.7331 33.6585 11.4621 33.1943 11.3534C32.73 11.2447 32.2422 11.3055 31.8188 11.5247L11.4888 22.1087L4.03883 19.3827L39.9968 5.00067L33.3428 37.0807Z" fill="white"/>
</svg>
