<svg width="149" height="138" viewBox="0 0 149 138" fill="none" xmlns="http://www.w3.org/2000/svg">
<path d="M75.6451 5.30573H64.8065L16.1973 98.7948H27.0359L75.6451 5.30573Z" fill="#C0C8D6"/>
<path d="M85.0063 59.3016L79.9565 15.097L70.5549 33.1641L73.5108 59.3016H57.1709L52.0801 69.3797H74.6194L77.9897 98.7948H89.4813L86.1559 69.3797H108.49V93.6346H118.589V69.3797H143.552V59.3016H118.589V34.9665H108.49V59.3016H85.0063Z" fill="#C0C8D6"/>
<path d="M75.6451 5.30573H64.8065L16.1973 98.7948H27.0359L75.6451 5.30573Z" stroke="#C0C8D6" stroke-width="0.378212"/>
<path d="M85.0063 59.3016L79.9565 15.097L70.5549 33.1641L73.5108 59.3016H57.1709L52.0801 69.3797H74.6194L77.9897 98.7948H89.4813L86.1559 69.3797H108.49V93.6346H118.589V69.3797H143.552V59.3016H118.589V34.9665H108.49V59.3016H85.0063Z" stroke="#C0C8D6" stroke-width="0.378212"/>
</svg>
