<svg width="7609" height="2573" viewBox="0 0 7609 2573" fill="none" xmlns="http://www.w3.org/2000/svg">
<path d="M2539.65 1733.03C2402.79 1733.03 2295.19 1707.02 2219.99 1655.63C2146.37 1605.29 2107.36 1531.56 2107.36 1442.42V1427.21H2326.86L2327.59 1441.69C2331.47 1515.1 2414.43 1557.26 2555.38 1557.26C2719.3 1557.26 2753.7 1509.01 2753.7 1468.53C2753.7 1418.3 2698.54 1408.54 2562.51 1389.46C2523.08 1383.9 2478.3 1377.61 2428.48 1368.9C2215.27 1331.57 2132.21 1261.09 2132.21 1117.62C2132.21 1037.71 2161.89 970.901 2218.1 924.336C2284.7 869.172 2388.32 841.275 2526.02 841.275C2663.72 841.275 2764.82 867.075 2834.03 918.044C2897.38 964.713 2930.73 1030.47 2933.35 1113.53L2933.88 1129.26H2728.32L2726.75 1115.73C2718.46 1042.95 2616.42 1016.94 2523.81 1016.94C2359.06 1016.94 2337.87 1063.72 2337.87 1104.51C2337.87 1154.85 2413.59 1168.28 2538.29 1184.64C2556.75 1187.05 2575.73 1189.57 2594.81 1192.29L2605.93 1193.97C2821.55 1225.43 2977.4 1248.19 2977.4 1442.52C2977.4 1682.69 2739.33 1733.03 2539.55 1733.03" fill="#353535"/>
<path d="M3073.74 1715.2V857.639H3575.99C3786.79 857.639 3907.6 964.821 3907.6 1151.71C3907.6 1338.6 3785.53 1446.93 3554.49 1446.93H3286.11V1715.1H3073.74V1715.2ZM3544.32 1272.31C3643.53 1272.31 3691.77 1232.88 3691.77 1151.71C3691.77 1070.54 3646.26 1034.56 3544.32 1034.56H3286.11V1272.31H3544.32Z" fill="#353535"/>
<path d="M5312.76 1733.03C5088.02 1733.03 4847.75 1615.78 4847.75 1286.58C4847.75 957.372 5087.91 841.275 5312.76 841.275C5426.03 841.275 5527.44 870.011 5606.1 924.336C5695.98 986.422 5753.03 1081.54 5770.86 1199.21L5773.48 1216.73H5554.81L5552.19 1204.77C5524.19 1077.66 5445.85 1015.89 5312.87 1015.89C5097.03 1015.89 5064.84 1185.48 5064.84 1286.58C5064.84 1387.67 5097.03 1558.41 5312.87 1558.41C5445.85 1558.41 5524.19 1496.64 5552.19 1369.53L5554.81 1357.58H5773.48L5770.86 1375.09C5753.03 1492.86 5695.98 1587.88 5606.1 1649.97C5527.44 1704.29 5426.03 1733.03 5312.76 1733.03Z" fill="#353535"/>
<path d="M5860.2 1715.2V857.639H6595.8V1034.67H6072.58V1187.37H6552.9V1363.14H6072.58V1538.17H6595.8V1715.2H5860.2Z" fill="#353535"/>
<path d="M4548.65 857.639H4512.99L4062.34 1366.39H3892.87L3754.22 1530.1H3917.3L3753.28 1715.31H4019.97L4184 1530.1H4548.65V1715.31H4761.02V857.744H4548.65V857.639ZM4548.65 1366.39H4329.04L4548.65 1118.46V1366.39Z" fill="#353535"/>
<path d="M1797.77 857.639H1762.11L1311.46 1366.39H1141.98L1003.34 1530.1H1166.42L1002.39 1715.31H1269.09L1433.12 1530.1H1797.77V1715.31H2010.14V857.744H1797.77V857.639ZM1797.77 1366.39H1578.16L1797.77 1118.46V1366.39Z" fill="#353535"/>
</svg>
