<svg width="5546" height="1873" viewBox="0 0 5546 1873" fill="none" xmlns="http://www.w3.org/2000/svg">
<path d="M139.576 1838.21V468.688M139.576 468.688H0.890625M139.576 468.688L780.997 1110.11L1422.42 468.688M1578.44 468.688H1422.42M1422.42 468.688V1838.21H2878.62L4040.11 659.38M3537.37 1335.47H4161.46V694.052H4282.81V1786.2H5530.98M4490.84 1664.85L4837.55 1318.14H5045.58L5184.27 1162.12H4542.84L4664.19 1023.43H4906.89L5461.64 468.688H1959.83M1786.47 659.38V1664.85M2167.85 659.38V1110.11L2601.25 694.052H2826.61L2271.87 1231.46L2705.26 1664.85" stroke="#001881" stroke-width="69.3428"/>
<circle cx="1769.17" cy="433.857" r="156.021" fill="#FF0000"/>
<path d="M2375.89 75.0087V102.746H2267.37V322.562H2236.16V75.0087H2375.89ZM2484.97 133.257C2507.85 133.257 2526.23 141.231 2540.1 157.18C2554.19 173.129 2561.24 197.168 2561.24 229.296C2561.24 250.33 2558.01 268.128 2551.54 282.69C2545.3 297.021 2536.4 307.885 2524.84 315.282C2513.51 322.447 2500.11 326.03 2484.62 326.03C2475.14 326.03 2466.71 324.758 2459.31 322.216C2451.91 319.673 2445.56 316.437 2440.24 312.508C2435.16 308.347 2430.76 303.84 2427.07 298.986H2424.99C2425.45 302.915 2425.91 307.885 2426.37 313.895C2426.84 319.904 2427.07 325.105 2427.07 329.497V405.774H2396.56V136.724H2421.52L2425.68 162.034H2427.07C2430.76 156.718 2435.16 151.864 2440.24 147.472C2445.56 143.08 2451.8 139.613 2458.96 137.07C2466.36 134.528 2475.03 133.257 2484.97 133.257ZM2479.42 158.913C2466.94 158.913 2456.88 161.34 2449.26 166.194C2441.63 170.817 2436.08 177.867 2432.61 187.344C2429.15 196.821 2427.3 208.84 2427.07 223.402V229.296C2427.07 244.552 2428.68 257.496 2431.92 268.128C2435.16 278.761 2440.59 286.851 2448.22 292.398C2456.07 297.946 2466.71 300.72 2480.11 300.72C2491.44 300.72 2500.69 297.599 2507.85 291.358C2515.25 285.117 2520.68 276.681 2524.15 266.048C2527.84 255.184 2529.69 242.818 2529.69 228.95C2529.69 207.685 2525.53 190.696 2517.21 177.983C2509.12 165.27 2496.52 158.913 2479.42 158.913ZM2577.36 136.724H2609.95L2650.17 242.472C2652.48 248.712 2654.56 254.722 2656.41 260.501C2658.49 266.279 2660.34 271.942 2661.95 277.49C2663.57 282.806 2664.84 288.007 2665.77 293.092H2667.16C2668.54 287.313 2670.74 279.801 2673.74 270.555C2676.75 261.079 2679.87 251.602 2683.1 242.125L2720.9 136.724H2753.83L2673.74 348.219C2669.35 359.776 2664.15 369.831 2658.14 378.383C2652.36 387.167 2645.2 393.87 2636.64 398.493C2628.32 403.347 2618.15 405.774 2606.13 405.774C2600.59 405.774 2595.73 405.427 2591.57 404.734C2587.41 404.271 2583.83 403.694 2580.82 403V378.73C2583.37 379.192 2586.37 379.655 2589.84 380.117C2593.54 380.579 2597.35 380.81 2601.28 380.81C2608.44 380.81 2614.57 379.424 2619.66 376.65C2624.97 374.107 2629.48 370.293 2633.18 365.208C2636.88 360.354 2640 354.576 2642.54 347.873L2652.25 323.256L2577.36 136.724ZM2940.28 136.724V322.562H2909.77V162.727H2813.73V322.562H2783.22V136.724H2940.28ZM3156.64 136.724V322.562H3126.13V162.727H3030.09V322.562H2999.58V136.724H3156.64ZM3286.32 133.603C3308.97 133.603 3325.73 138.573 3336.59 148.512C3347.46 158.451 3352.89 174.284 3352.89 196.012V322.562H3330.7L3324.81 296.212H3323.42C3318.1 302.915 3312.56 308.578 3306.78 313.201C3301.23 317.593 3294.76 320.829 3287.36 322.909C3280.2 324.989 3271.41 326.03 3261.01 326.03C3249.92 326.03 3239.86 324.065 3230.85 320.136C3222.06 316.206 3215.13 310.196 3210.04 302.106C3204.96 293.785 3202.42 283.384 3202.42 270.902C3202.42 252.411 3209.7 238.195 3224.26 228.256C3238.82 218.086 3261.24 212.539 3291.52 211.614L3323.07 210.574V199.479C3323.07 183.992 3319.72 173.244 3313.02 167.235C3306.32 161.225 3296.84 158.22 3284.59 158.22C3274.88 158.22 3265.63 159.722 3256.85 162.727C3248.07 165.501 3239.86 168.737 3232.23 172.435L3222.87 149.552C3230.96 145.16 3240.56 141.462 3251.65 138.457C3262.74 135.221 3274.3 133.603 3286.32 133.603ZM3295.34 232.764C3272.22 233.688 3256.16 237.386 3247.14 243.858C3238.36 250.33 3233.97 259.461 3233.97 271.249C3233.97 281.65 3237.09 289.278 3243.33 294.132C3249.8 298.986 3258.01 301.413 3267.95 301.413C3283.66 301.413 3296.72 297.137 3307.12 288.585C3317.53 279.801 3322.73 266.395 3322.73 248.366V231.723L3295.34 232.764ZM3617.37 136.724H3650.66L3571.26 226.176L3657.24 322.562H3621.88L3537.97 228.256V322.562H3507.46V136.724H3537.97V226.869L3617.37 136.724ZM3845.77 229.296C3845.77 244.783 3843.69 258.536 3839.53 270.555C3835.6 282.344 3829.83 292.398 3822.2 300.72C3814.8 309.041 3805.67 315.397 3794.81 319.789C3784.17 323.949 3772.27 326.03 3759.1 326.03C3746.85 326.03 3735.52 323.949 3725.12 319.789C3714.72 315.397 3705.7 309.041 3698.07 300.72C3690.45 292.398 3684.44 282.344 3680.04 270.555C3675.88 258.536 3673.8 244.783 3673.8 229.296C3673.8 208.725 3677.27 191.389 3684.21 177.289C3691.14 162.958 3701.08 152.095 3714.02 144.698C3726.97 137.07 3742.34 133.257 3760.14 133.257C3777.01 133.257 3791.8 137.07 3804.52 144.698C3817.46 152.095 3827.51 162.958 3834.68 177.289C3842.08 191.389 3845.77 208.725 3845.77 229.296ZM3705.36 229.296C3705.36 243.858 3707.2 256.571 3710.9 267.435C3714.83 278.068 3720.84 286.273 3728.93 292.052C3737.02 297.83 3747.31 300.72 3759.79 300.72C3772.27 300.72 3782.56 297.83 3790.65 292.052C3798.74 286.273 3804.63 278.068 3808.33 267.435C3812.26 256.571 3814.22 243.858 3814.22 229.296C3814.22 214.503 3812.26 201.906 3808.33 191.505C3804.4 181.103 3798.39 173.129 3790.3 167.581C3782.44 161.803 3772.16 158.913 3759.44 158.913C3740.49 158.913 3726.74 165.154 3718.18 177.636C3709.63 190.118 3705.36 207.338 3705.36 229.296ZM4093.49 136.724V322.562H4066.1V203.986C4066.1 199.132 4066.22 194.047 4066.45 188.731C4066.91 183.415 4067.37 178.214 4067.83 173.129H4066.79L4006.12 322.562H3980.46L3921.52 173.129H3920.48C3920.94 178.214 3921.17 183.415 3921.17 188.731C3921.4 194.047 3921.52 199.479 3921.52 205.026V322.562H3894.13V136.724H3934.7L3993.29 286.158L4052.93 136.724H4093.49ZM4309.87 136.724V322.562H4279.36V162.727H4183.32V322.562H4152.81V136.724H4309.87ZM4439.55 133.603C4462.2 133.603 4478.96 138.573 4489.83 148.512C4500.69 158.451 4506.12 174.284 4506.12 196.012V322.562H4483.93L4478.04 296.212H4476.65C4471.33 302.915 4465.79 308.578 4460.01 313.201C4454.46 317.593 4447.99 320.829 4440.59 322.909C4433.43 324.989 4424.64 326.03 4414.24 326.03C4403.15 326.03 4393.09 324.065 4384.08 320.136C4375.29 316.206 4368.36 310.196 4363.27 302.106C4358.19 293.785 4355.65 283.384 4355.65 270.902C4355.65 252.411 4362.93 238.195 4377.49 228.256C4392.05 218.086 4414.47 212.539 4444.75 211.614L4476.3 210.574V199.479C4476.3 183.992 4472.95 173.244 4466.25 167.235C4459.55 161.225 4450.07 158.22 4437.82 158.22C4428.11 158.22 4418.86 159.722 4410.08 162.727C4401.3 165.501 4393.09 168.737 4385.46 172.435L4376.1 149.552C4384.19 145.16 4393.79 141.462 4404.88 138.457C4415.98 135.221 4427.53 133.603 4439.55 133.603ZM4448.57 232.764C4425.45 233.688 4409.39 237.386 4400.37 243.858C4391.59 250.33 4387.2 259.461 4387.2 271.249C4387.2 281.65 4390.32 289.278 4396.56 294.132C4403.03 298.986 4411.24 301.413 4421.18 301.413C4436.89 301.413 4449.95 297.137 4460.35 288.585C4470.76 279.801 4475.96 266.395 4475.96 248.366V231.723L4448.57 232.764ZM4594.03 136.724V214.041H4694.92V136.724H4725.43V322.562H4694.92V239.698H4594.03V322.562H4563.52V136.724H4594.03ZM4813.05 250.099C4813.05 252.18 4812.94 255.184 4812.71 259.114C4812.71 262.812 4812.59 266.857 4812.36 271.249C4812.13 275.409 4811.9 279.454 4811.67 283.384C4811.44 287.082 4811.21 290.087 4810.97 292.398L4910.48 136.724H4947.93V322.562H4919.5V213.001C4919.5 209.303 4919.5 204.449 4919.5 198.439C4919.73 192.429 4919.96 186.535 4920.19 180.756C4920.42 174.747 4920.65 170.239 4920.88 167.235L4822.07 322.562H4784.28V136.724H4813.05V250.099ZM5157.54 59.7533C5156.62 71.3104 5153.73 81.0184 5148.87 88.8772C5144.25 96.7361 5137.32 102.63 5128.07 106.56C5118.83 110.489 5106.81 112.454 5092.01 112.454C5076.99 112.454 5064.85 110.489 5055.61 106.56C5046.59 102.63 5040.01 96.8517 5035.85 89.224C5031.69 81.3651 5029.14 71.5415 5028.22 59.7533H5056.65C5057.8 72.235 5061.04 80.6717 5066.36 85.0634C5071.9 89.2239 5080.69 91.3042 5092.71 91.3042C5103.34 91.3042 5111.66 89.1084 5117.67 84.7167C5123.91 80.0938 5127.61 71.7727 5128.76 59.7533H5157.54ZM5035.85 250.099C5035.85 252.18 5035.73 255.184 5035.5 259.114C5035.5 262.812 5035.38 266.857 5035.15 271.249C5034.92 275.409 5034.69 279.454 5034.46 283.384C5034.23 287.082 5034 290.087 5033.77 292.398L5133.27 136.724H5170.72V322.562H5142.29V213.001C5142.29 209.303 5142.29 204.449 5142.29 198.439C5142.52 192.429 5142.75 186.535 5142.98 180.756C5143.21 174.747 5143.44 170.239 5143.67 167.235L5044.86 322.562H5007.07V136.724H5035.85V250.099Z" fill="#001881"/>
</svg>
