<svg width="3380" height="2975" viewBox="0 0 3380 2975" fill="none" xmlns="http://www.w3.org/2000/svg">
<path d="M1696.06 0.363281L2549.67 512.53L1696.06 960.676L842.449 512.53L1696.06 0.363281Z" fill="#123D10"/>
<path d="M1696.01 2038.33V960.65L2549.62 512.504V1536.84L1696.01 2038.33Z" fill="#BFC1BF"/>
<path d="M1696.06 2038.33V960.65L842.449 512.504V1536.84L1696.06 2038.33Z" fill="#D5D5D5"/>
<path d="M1696.05 1216.64L1034.5 843.186V1419.37L1696.05 1803.5L2357.6 1419.37V1259.32L1696.05 1643.45L1162.55 1334.01V1077.93L1696.05 1376.69L2357.6 1003.24V843.186L1696.05 1216.64Z" fill="#123D10"/>
<path d="M230.22 2484.16H178.9V2379.48H82.7169V2484.16H31.3966V2241.49H82.7169V2336.65H178.9V2241.49H230.22V2484.16ZM291.277 2241.49H337.5V2358.75C337.5 2364.41 337.386 2370.76 337.16 2377.78C336.933 2384.8 336.707 2391.71 336.48 2398.51C336.253 2405.08 336.027 2410.86 335.8 2415.84C335.574 2420.6 335.347 2423.89 335.121 2425.7H336.14L448.297 2241.49H509.814V2484.16H463.931V2367.58C463.931 2361.47 464.044 2354.78 464.271 2347.53C464.498 2340.05 464.724 2332.92 464.951 2326.12C465.404 2319.32 465.744 2313.43 465.97 2308.45C466.424 2303.23 466.763 2299.84 466.99 2298.25H465.631L353.134 2484.16H291.277V2241.49ZM799.125 2443.37V2554.85H749.504V2484.16H571.072V2241.49H622.393V2441.33H711.778V2241.49H763.099V2443.37H799.125ZM994.008 2280.92C984.265 2280.92 975.542 2282.84 967.838 2286.69C960.361 2290.55 954.017 2296.1 948.806 2303.35C943.594 2310.37 939.629 2318.98 936.91 2329.18C934.418 2339.37 933.172 2350.82 933.172 2363.5C933.172 2380.72 935.211 2395.45 939.289 2407.69C943.594 2419.7 950.278 2428.87 959.342 2435.22C968.405 2441.56 979.96 2444.73 994.008 2444.73C1003.98 2444.73 1013.83 2443.6 1023.58 2441.33C1033.55 2439.07 1044.31 2435.9 1055.86 2431.82V2474.98C1045.22 2479.29 1034.68 2482.46 1024.26 2484.5C1013.83 2486.54 1002.17 2487.56 989.25 2487.56C964.326 2487.56 943.708 2482.46 927.394 2472.26C911.307 2461.84 899.411 2447.34 891.707 2428.76C884.004 2409.95 880.152 2388.09 880.152 2363.16C880.152 2344.81 882.644 2328.04 887.629 2312.86C892.614 2297.46 899.864 2284.2 909.381 2273.1C919.124 2262 931.019 2253.39 945.067 2247.27C959.342 2241.15 975.655 2238.09 994.008 2238.09C1006.02 2238.09 1018.03 2239.68 1030.03 2242.85C1042.27 2245.8 1053.94 2249.87 1065.04 2255.09L1048.39 2296.89C1039.32 2292.59 1030.15 2288.85 1020.86 2285.67C1011.79 2282.5 1002.84 2280.92 994.008 2280.92ZM1256.97 2336.65H1196.14V2484.16H1145.49V2336.65H1084.66V2298.59H1256.97V2336.65ZM1394.53 2295.19C1415.37 2295.19 1432.25 2303.35 1445.17 2319.66C1458.08 2335.75 1464.54 2359.54 1464.54 2391.03C1464.54 2412.11 1461.48 2429.89 1455.37 2444.39C1449.25 2458.67 1440.86 2469.43 1430.21 2476.68C1419.57 2483.93 1407.22 2487.56 1393.17 2487.56C1384.33 2487.56 1376.63 2486.42 1370.06 2484.16C1363.71 2481.89 1358.28 2478.95 1353.74 2475.32C1349.21 2471.7 1345.25 2467.84 1341.85 2463.77H1339.13C1340.04 2468.07 1340.72 2472.6 1341.17 2477.36C1341.62 2481.89 1341.85 2486.42 1341.85 2490.96V2565.73H1291.21V2298.59H1332.33L1339.47 2322.72H1341.85C1345.25 2317.74 1349.33 2313.2 1354.08 2309.13C1358.84 2304.82 1364.51 2301.42 1371.08 2298.93C1377.88 2296.44 1385.69 2295.19 1394.53 2295.19ZM1378.21 2335.64C1369.38 2335.64 1362.35 2337.45 1357.14 2341.07C1351.93 2344.7 1348.08 2350.25 1345.59 2357.73C1343.32 2364.98 1342.08 2374.15 1341.85 2385.26V2390.69C1341.85 2402.7 1342.98 2412.9 1345.25 2421.28C1347.51 2429.44 1351.37 2435.67 1356.8 2439.98C1362.24 2444.28 1369.6 2446.43 1378.89 2446.43C1386.6 2446.43 1392.94 2444.28 1397.93 2439.98C1402.91 2435.67 1406.65 2429.33 1409.14 2420.94C1411.64 2412.56 1412.88 2402.36 1412.88 2390.35C1412.88 2372.23 1410.05 2358.63 1404.38 2349.57C1398.95 2340.28 1390.22 2335.64 1378.21 2335.64ZM1674.86 2391.03C1674.86 2406.44 1672.7 2420.15 1668.4 2432.16C1664.32 2444.17 1658.32 2454.36 1650.39 2462.75C1642.68 2470.9 1633.28 2477.13 1622.18 2481.44C1611.08 2485.52 1598.5 2487.56 1584.45 2487.56C1571.54 2487.56 1559.53 2485.52 1548.43 2481.44C1537.55 2477.13 1528.15 2470.9 1520.22 2462.75C1512.29 2454.36 1506.06 2444.17 1501.52 2432.16C1497.22 2420.15 1495.07 2406.44 1495.07 2391.03C1495.07 2370.42 1498.69 2353.08 1505.94 2339.03C1513.19 2324.76 1523.62 2313.88 1537.21 2306.41C1550.8 2298.93 1566.89 2295.19 1585.47 2295.19C1602.92 2295.19 1618.33 2298.93 1631.69 2306.41C1645.06 2313.88 1655.6 2324.76 1663.3 2339.03C1671.01 2353.08 1674.86 2370.42 1674.86 2391.03ZM1546.73 2391.03C1546.73 2403.27 1547.97 2413.58 1550.47 2421.96C1553.18 2430.12 1557.38 2436.35 1563.04 2440.65C1568.7 2444.73 1576.07 2446.77 1585.13 2446.77C1594.19 2446.77 1601.45 2444.73 1606.88 2440.65C1612.55 2436.35 1616.63 2430.12 1619.12 2421.96C1621.84 2413.58 1623.2 2403.27 1623.2 2391.03C1623.2 2378.8 1621.84 2368.6 1619.12 2360.45C1616.63 2352.29 1612.55 2346.17 1606.88 2342.09C1601.22 2338.01 1593.86 2335.98 1584.79 2335.98C1571.42 2335.98 1561.68 2340.62 1555.56 2349.91C1549.67 2358.97 1546.73 2372.68 1546.73 2391.03ZM1765.65 2372C1765.65 2375.85 1765.42 2380.61 1764.97 2386.28C1764.74 2391.94 1764.4 2397.72 1763.95 2403.61C1763.72 2409.5 1763.38 2414.71 1762.93 2419.24C1762.48 2423.77 1762.14 2426.95 1761.91 2428.76L1847.56 2298.59H1908.4V2484.16H1859.45V2410.07C1859.45 2403.95 1859.68 2397.26 1860.13 2390.01C1860.59 2382.54 1861.04 2375.63 1861.49 2369.28C1862.17 2362.71 1862.63 2357.73 1862.85 2354.33L1777.55 2484.16H1716.71V2298.59H1765.65V2372ZM2114.94 2336.65H2054.11V2484.16H2003.47V2336.65H1942.63V2298.59H2114.94V2336.65ZM2222.33 2295.19C2239.55 2295.19 2254.28 2298.48 2266.51 2305.05C2278.98 2311.62 2288.61 2321.13 2295.4 2333.6C2302.2 2346.06 2305.6 2361.35 2305.6 2379.48V2403.95H2185.97C2186.42 2418.22 2190.61 2429.44 2198.54 2437.6C2206.7 2445.75 2217.91 2449.83 2232.19 2449.83C2244.2 2449.83 2255.07 2448.7 2264.82 2446.43C2274.56 2443.94 2284.64 2440.2 2295.06 2435.22V2474.3C2286 2478.83 2276.37 2482.12 2266.17 2484.16C2256.21 2486.42 2244.08 2487.56 2229.81 2487.56C2211.23 2487.56 2194.8 2484.16 2180.53 2477.36C2166.25 2470.34 2155.04 2459.8 2146.88 2445.75C2138.72 2431.7 2134.65 2414.03 2134.65 2392.73C2134.65 2370.98 2138.27 2352.97 2145.52 2338.69C2153 2324.19 2163.31 2313.32 2176.45 2306.07C2189.59 2298.82 2204.88 2295.19 2222.33 2295.19ZM2222.67 2331.22C2212.93 2331.22 2204.77 2334.39 2198.2 2340.73C2191.86 2347.08 2188.12 2356.93 2186.99 2370.3H2258.02C2258.02 2362.82 2256.66 2356.14 2253.94 2350.25C2251.45 2344.36 2247.6 2339.71 2242.38 2336.31C2237.17 2332.92 2230.6 2331.22 2222.67 2331.22ZM2512.86 2484.16H2462.22V2336.65H2415.66C2413.39 2363.84 2410.56 2387.07 2407.16 2406.33C2403.99 2425.36 2399.91 2440.88 2394.92 2452.89C2390.17 2464.9 2384.05 2473.74 2376.57 2479.4C2369.09 2484.84 2359.92 2487.56 2349.04 2487.56C2343.15 2487.56 2337.83 2487.1 2333.07 2486.2C2328.31 2485.29 2324 2483.93 2320.15 2482.12V2441.67C2322.65 2442.58 2325.25 2443.37 2327.97 2444.05C2330.69 2444.73 2333.52 2445.07 2336.47 2445.07C2339.64 2445.07 2342.58 2443.83 2345.3 2441.33C2348.25 2438.84 2350.97 2434.42 2353.46 2428.08C2356.18 2421.74 2358.67 2413.01 2360.94 2401.91C2363.2 2390.81 2365.24 2376.87 2367.05 2360.11C2369.09 2343.11 2370.91 2322.61 2372.49 2298.59H2512.86V2484.16ZM2652.05 2370.3C2671.08 2370.3 2686.83 2372.34 2699.29 2376.42C2711.75 2380.27 2720.93 2386.28 2726.82 2394.43C2732.94 2402.59 2735.99 2412.79 2735.99 2425.02C2735.99 2437.03 2733.16 2447.45 2727.5 2456.29C2722.06 2465.13 2713.34 2472.04 2701.33 2477.02C2689.32 2481.78 2673.57 2484.16 2654.09 2484.16H2565.72V2298.59H2616.36V2370.3H2652.05ZM2685.35 2425.7C2685.35 2418.45 2682.41 2413.24 2676.52 2410.07C2670.85 2406.89 2662.36 2405.31 2651.03 2405.31H2616.36V2449.15H2651.71C2661.68 2449.15 2669.72 2447.34 2675.84 2443.71C2682.18 2440.09 2685.35 2434.08 2685.35 2425.7ZM2825.13 2298.59V2369.96H2895.82V2298.59H2946.46V2484.16H2895.82V2407.69H2825.13V2484.16H2774.49V2298.59H2825.13ZM3075.65 2294.85C3100.57 2294.85 3119.6 2300.29 3132.75 2311.16C3146.11 2321.81 3152.8 2338.24 3152.8 2360.45V2484.16H3117.45L3107.6 2459.01H3106.24C3101.03 2465.58 3095.59 2471.02 3089.92 2475.32C3084.49 2479.63 3078.14 2482.69 3070.89 2484.5C3063.87 2486.54 3055.14 2487.56 3044.72 2487.56C3033.84 2487.56 3023.99 2485.52 3015.15 2481.44C3006.54 2477.13 2999.74 2470.68 2994.76 2462.07C2989.77 2453.23 2987.28 2442.13 2987.28 2428.76C2987.28 2409.05 2994.19 2394.55 3008.01 2385.26C3021.84 2375.74 3042.57 2370.53 3070.21 2369.62L3102.5 2368.6V2360.45C3102.5 2350.7 3099.89 2343.57 3094.68 2339.03C3089.7 2334.5 3082.67 2332.24 3073.61 2332.24C3064.55 2332.24 3055.71 2333.6 3047.1 2336.31C3038.49 2338.81 3029.88 2341.98 3021.27 2345.83L3004.62 2311.5C3014.59 2306.29 3025.57 2302.21 3037.58 2299.27C3049.82 2296.32 3062.51 2294.85 3075.65 2294.85ZM3082.79 2398.85C3066.47 2399.3 3055.14 2402.25 3048.8 2407.69C3042.45 2413.13 3039.28 2420.26 3039.28 2429.1C3039.28 2436.8 3041.55 2442.35 3046.08 2445.75C3050.61 2448.93 3056.5 2450.51 3063.75 2450.51C3074.63 2450.51 3083.81 2447.34 3091.28 2440.99C3098.76 2434.42 3102.5 2425.25 3102.5 2413.47V2398.17L3082.79 2398.85ZM3232.84 2484.16H3178.12L3228.09 2410.75C3221.74 2408.03 3215.74 2404.4 3210.07 2399.87C3204.63 2395.11 3200.22 2389.11 3196.82 2381.86C3193.42 2374.61 3191.72 2366 3191.72 2356.03C3191.72 2337.45 3198.74 2323.29 3212.79 2313.54C3226.84 2303.57 3244.85 2298.59 3266.83 2298.59H3353.16V2484.16H3302.52V2415.16H3274.65L3232.84 2484.16ZM3241.34 2356.37C3241.34 2364.07 3244.4 2370.19 3250.52 2374.72C3256.63 2379.03 3264.56 2381.18 3274.31 2381.18H3302.52V2334.28H3267.85C3258.79 2334.28 3252.1 2336.54 3247.8 2341.07C3243.49 2345.38 3241.34 2350.48 3241.34 2356.37ZM749.909 2688.92C739.033 2688.92 728.27 2690.5 717.621 2693.67C706.972 2696.62 696.549 2700.25 686.353 2704.55L670.039 2663.09C682.048 2657.87 694.737 2653.8 708.105 2650.85C721.473 2647.68 735.748 2646.09 750.928 2646.09C768.828 2646.09 784.689 2648.92 798.51 2654.59C812.558 2660.03 824.34 2668.18 833.857 2679.06C843.6 2689.71 850.963 2702.85 855.948 2718.48C861.159 2733.89 863.765 2751.45 863.765 2771.16C863.765 2796.09 859.573 2817.95 851.19 2836.76C842.807 2855.34 829.891 2869.84 812.445 2880.26C795.225 2890.46 773.133 2895.56 746.17 2895.56C732.349 2895.56 719.774 2894.54 708.445 2892.5C697.342 2890.46 686.013 2887.29 674.458 2882.98V2839.82C687.373 2843.9 699.268 2847.07 710.144 2849.33C721.247 2851.6 732.236 2852.73 743.111 2852.73C753.534 2852.73 762.711 2851.49 770.641 2848.99C778.798 2846.28 785.595 2842.42 791.033 2837.44C796.698 2832.23 801.116 2825.77 804.288 2818.07C807.46 2810.14 809.273 2801.07 809.726 2790.88H704.366V2748.73H809.386C809.159 2739.22 807.573 2730.83 804.628 2723.58C801.682 2716.11 797.604 2709.87 792.393 2704.89C787.181 2699.68 780.95 2695.71 773.7 2692.99C766.676 2690.28 758.745 2688.92 749.909 2688.92ZM1031.69 2706.59H1087.43L1014.02 2795.64L1093.89 2892.16H1036.45L960.657 2798.01V2892.16H910.017V2706.59H960.657V2796.65L1031.69 2706.59ZM1189.26 2895.56C1170.9 2895.56 1155.27 2892.27 1142.35 2885.7C1129.44 2878.9 1119.58 2868.48 1112.79 2854.43C1105.99 2840.38 1102.59 2822.37 1102.59 2800.39C1102.59 2777.74 1106.44 2759.27 1114.15 2744.99C1121.85 2730.72 1132.5 2720.18 1146.09 2713.39C1159.91 2706.59 1175.78 2703.19 1193.67 2703.19C1206.36 2703.19 1217.35 2704.44 1226.64 2706.93C1236.16 2709.42 1244.43 2712.37 1251.45 2715.77L1236.5 2754.85C1228.57 2751.68 1221.09 2749.07 1214.07 2747.03C1207.27 2744.99 1200.47 2743.98 1193.67 2743.98C1184.84 2743.98 1177.47 2746.13 1171.58 2750.43C1165.69 2754.51 1161.27 2760.74 1158.33 2769.13C1155.61 2777.28 1154.25 2787.59 1154.25 2800.05C1154.25 2812.29 1155.72 2822.48 1158.67 2830.64C1161.84 2838.57 1166.37 2844.58 1172.26 2848.65C1178.15 2852.51 1185.29 2854.43 1193.67 2854.43C1204.32 2854.43 1213.73 2853.07 1221.88 2850.35C1230.04 2847.41 1237.97 2843.44 1245.68 2838.46V2881.62C1237.97 2886.61 1229.81 2890.12 1221.2 2892.16C1212.82 2894.42 1202.17 2895.56 1189.26 2895.56ZM1456.96 2706.59V2892.16H1406.32V2744.65H1339.03V2892.16H1288.39V2706.59H1456.96ZM1586.57 2703.19C1603.79 2703.19 1618.52 2706.48 1630.75 2713.05C1643.21 2719.62 1652.84 2729.13 1659.64 2741.6C1666.44 2754.06 1669.84 2769.35 1669.84 2787.48V2811.95H1550.2C1550.66 2826.22 1554.85 2837.44 1562.78 2845.6C1570.94 2853.75 1582.15 2857.83 1596.43 2857.83C1608.43 2857.83 1619.31 2856.7 1629.05 2854.43C1638.8 2851.94 1648.88 2848.2 1659.3 2843.22V2882.3C1650.24 2886.83 1640.61 2890.12 1630.41 2892.16C1620.44 2894.42 1608.32 2895.56 1594.05 2895.56C1575.47 2895.56 1559.04 2892.16 1544.77 2885.36C1530.49 2878.34 1519.28 2867.8 1511.12 2853.75C1502.96 2839.7 1498.88 2822.03 1498.88 2800.73C1498.88 2778.98 1502.51 2760.97 1509.76 2746.69C1517.24 2732.19 1527.55 2721.32 1540.69 2714.07C1553.83 2706.82 1569.12 2703.19 1586.57 2703.19ZM1586.91 2739.22C1577.17 2739.22 1569.01 2742.39 1562.44 2748.73C1556.09 2755.08 1552.36 2764.93 1551.22 2778.3H1622.26C1622.26 2770.82 1620.9 2764.14 1618.18 2758.25C1615.69 2752.36 1611.83 2747.71 1606.62 2744.31C1601.41 2740.92 1594.84 2739.22 1586.91 2739.22ZM1814.22 2703.19C1835.07 2703.19 1851.95 2711.35 1864.86 2727.66C1877.78 2743.75 1884.23 2767.54 1884.23 2799.03C1884.23 2820.11 1881.18 2837.89 1875.06 2852.39C1868.94 2866.67 1860.56 2877.43 1849.91 2884.68C1839.26 2891.93 1826.91 2895.56 1812.86 2895.56C1804.02 2895.56 1796.32 2894.42 1789.75 2892.16C1783.41 2889.89 1777.97 2886.95 1773.44 2883.32C1768.91 2879.7 1764.94 2875.84 1761.54 2871.77H1758.82C1759.73 2876.07 1760.41 2880.6 1760.86 2885.36C1761.31 2889.89 1761.54 2894.42 1761.54 2898.96V2973.73H1710.9V2706.59H1752.02L1759.16 2730.72H1761.54C1764.94 2725.74 1769.02 2721.2 1773.78 2717.13C1778.53 2712.82 1784.2 2709.42 1790.77 2706.93C1797.57 2704.44 1805.38 2703.19 1814.22 2703.19ZM1797.91 2743.64C1789.07 2743.64 1782.05 2745.45 1776.84 2749.07C1771.62 2752.7 1767.77 2758.25 1765.28 2765.73C1763.01 2772.98 1761.77 2782.15 1761.54 2793.26V2798.69C1761.54 2810.7 1762.67 2820.9 1764.94 2829.28C1767.21 2837.44 1771.06 2843.67 1776.5 2847.98C1781.93 2852.28 1789.3 2854.43 1798.59 2854.43C1806.29 2854.43 1812.64 2852.28 1817.62 2847.98C1822.6 2843.67 1826.34 2837.33 1828.84 2828.94C1831.33 2820.56 1832.57 2810.36 1832.57 2798.35C1832.57 2780.23 1829.74 2766.63 1824.08 2757.57C1818.64 2748.28 1809.92 2743.64 1797.91 2743.64ZM2076.28 2744.65H2015.44V2892.16H1964.8V2744.65H1903.96V2706.59H2076.28V2744.65ZM2159.45 2780C2159.45 2783.85 2159.23 2788.61 2158.77 2794.28C2158.55 2799.94 2158.21 2805.72 2157.75 2811.61C2157.53 2817.5 2157.19 2822.71 2156.74 2827.24C2156.28 2831.77 2155.94 2834.95 2155.72 2836.76L2241.36 2706.59H2302.2V2892.16H2253.26V2818.07C2253.26 2811.95 2253.48 2805.26 2253.94 2798.01C2254.39 2790.54 2254.84 2783.63 2255.3 2777.28C2255.98 2770.71 2256.43 2765.73 2256.66 2762.33L2171.35 2892.16H2110.51V2706.59H2159.45V2780ZM2422.76 2703.19C2436.13 2703.19 2448.59 2705 2460.15 2708.63C2471.93 2712.03 2481.33 2717.35 2488.35 2724.6C2495.61 2731.85 2499.23 2741.14 2499.23 2752.47C2499.23 2763.57 2495.83 2772.41 2489.03 2778.98C2482.46 2785.55 2473.51 2790.31 2462.18 2793.26V2794.96C2470.12 2796.77 2477.25 2799.37 2483.6 2802.77C2489.94 2805.94 2494.93 2810.36 2498.55 2816.03C2502.4 2821.47 2504.33 2828.83 2504.33 2838.12C2504.33 2848.32 2501.04 2857.83 2494.47 2866.67C2488.13 2875.28 2478.16 2882.3 2464.56 2887.74C2451.2 2892.95 2433.98 2895.56 2412.9 2895.56C2402.93 2895.56 2393.53 2895.1 2384.69 2894.2C2375.86 2893.29 2367.81 2892.04 2360.56 2890.46C2353.31 2888.65 2346.97 2886.49 2341.53 2884V2842.2C2349.23 2845.82 2358.64 2849.11 2369.74 2852.05C2381.07 2855 2393.08 2856.47 2405.77 2856.47C2415.06 2856.47 2423.33 2855.79 2430.58 2854.43C2438.05 2853.07 2443.95 2850.81 2448.25 2847.64C2452.78 2844.46 2455.05 2840.27 2455.05 2835.06C2455.05 2830.08 2453.12 2826 2449.27 2822.82C2445.42 2819.43 2439.64 2816.93 2431.94 2815.35C2424.23 2813.76 2414.38 2812.97 2402.37 2812.97H2382.66V2777.96H2401.35C2418.12 2777.96 2431.03 2776.6 2440.09 2773.88C2449.38 2771.16 2454.03 2766.07 2454.03 2758.59C2454.03 2752.7 2451.08 2748.28 2445.19 2745.33C2439.3 2742.16 2429.67 2740.58 2416.3 2740.58C2407.47 2740.58 2397.84 2741.6 2387.41 2743.64C2376.99 2745.67 2367.13 2748.62 2357.84 2752.47L2342.89 2717.13C2353.54 2713.05 2365.21 2709.76 2377.9 2707.27C2390.59 2704.55 2405.54 2703.19 2422.76 2703.19ZM2619.78 2702.85C2644.7 2702.85 2663.73 2708.29 2676.88 2719.16C2690.24 2729.81 2696.93 2746.24 2696.93 2768.45V2892.16H2661.58L2651.73 2867.01H2650.37C2645.16 2873.58 2639.72 2879.02 2634.05 2883.32C2628.61 2887.63 2622.27 2890.69 2615.02 2892.5C2608 2894.54 2599.27 2895.56 2588.85 2895.56C2577.97 2895.56 2568.12 2893.52 2559.28 2889.44C2550.67 2885.13 2543.87 2878.68 2538.89 2870.07C2533.9 2861.23 2531.41 2850.13 2531.41 2836.76C2531.41 2817.05 2538.32 2802.55 2552.14 2793.26C2565.97 2783.74 2586.7 2778.53 2614.34 2777.62L2646.63 2776.6V2768.45C2646.63 2758.7 2644.02 2751.57 2638.81 2747.03C2633.83 2742.5 2626.8 2740.24 2617.74 2740.24C2608.68 2740.24 2599.84 2741.6 2591.23 2744.31C2582.62 2746.81 2574.01 2749.98 2565.4 2753.83L2548.75 2719.5C2558.72 2714.29 2569.7 2710.21 2581.71 2707.27C2593.95 2704.32 2606.64 2702.85 2619.78 2702.85ZM2626.92 2806.85C2610.6 2807.3 2599.27 2810.25 2592.93 2815.69C2586.58 2821.13 2583.41 2828.26 2583.41 2837.1C2583.41 2844.8 2585.68 2850.35 2590.21 2853.75C2594.74 2856.93 2600.63 2858.51 2607.88 2858.51C2618.76 2858.51 2627.94 2855.34 2635.41 2848.99C2642.89 2842.42 2646.63 2833.25 2646.63 2821.47V2806.17L2626.92 2806.85Z" fill="#4C4C4C"/>
</svg>
